<svg width="1440" height="481" viewBox="0 0 1440 481" fill="none" xmlns="http://www.w3.org/2000/svg">
<path d="M0 33.0167L104.042 54.9934C208.083 77.3828 416.167 120.717 624.25 110.09C832.333 99.05 1040.42 33.0167 1248.5 33.0167C1456.58 33.0167 1664.67 99.05 1872.75 104.518C2080.83 110.399 2288.92 54.6839 2392.96 27.5483L2497 0V231.117H2392.96C2288.92 231.117 2080.83 231.117 1872.75 231.117C1664.67 231.117 1456.58 231.117 1248.5 231.117C1040.42 231.117 832.333 231.117 624.25 231.117C416.167 231.117 208.083 231.117 104.042 231.117H0V33.0167Z" fill="#F55536"/>
<rect y="231" width="2497" height="250" fill="#F55536"/>
</svg>
