<svg width="374" height="210" viewBox="0 0 374 210" fill="none" xmlns="http://www.w3.org/2000/svg">
<path d="M367.669 63.7809C252.959 60.2774 138.383 63.8919 24.8921 81.3075C-15.6091 87.5226 106.861 80.3453 147.778 78.1634C182.189 76.3284 216.58 75.9047 251.006 74.7486C252.179 74.7092 277.575 71.3358 272.522 78.8885C266.095 88.4931 250.32 95.0394 240.832 100.731C232.169 105.928 212.323 113.498 206.84 122.637C202.661 129.604 239.082 123.414 240.197 123.19C250.974 121.023 261.657 118.466 272.361 115.978C275.857 115.165 285.285 112.556 283.112 115.412C277.716 122.505 217.611 153.983 247.222 159.79C252.412 160.808 276.386 159.449 276.18 168.641C275.986 177.317 265.284 184.507 259.531 189.62" stroke="#F55536" stroke-width="10" stroke-linecap="round"/>
</svg>
